<svg width="57" height="48" viewBox="0 0 57 48" fill="none" xmlns="http://www.w3.org/2000/svg">
<g clip-path="url(#clip0_54_5509)">
<rect x="6.5" y="4" width="45" height="43" rx="21.5" fill="#F2F2F2"/>
<g clip-path="url(#clip1_54_5509)">
<path fill-rule="evenodd" clip-rule="evenodd" d="M19.64 -0.841919H39.1433C40.8701 -0.841919 42.2834 0.571323 42.2834 2.29812V21.8014C42.2834 23.5282 40.8701 24.9414 39.1433 24.9414H19.64C17.9132 24.9414 16.5 23.5282 16.5 21.8014V2.29812C16.5 0.571323 17.9132 -0.841919 19.64 -0.841919Z" fill="#FFD164"/>
<path fill-rule="evenodd" clip-rule="evenodd" d="M25.2177 -0.841919H33.566V9.41374C33.566 9.68148 33.4285 9.91058 33.1913 10.0373C32.9568 10.1648 32.69 10.1541 32.4654 10.0094L29.7809 8.25476C29.5392 8.09663 29.2436 8.09663 29.0019 8.25476L26.3174 10.0094C26.0937 10.155 25.8259 10.1648 25.5914 10.0373C25.3543 9.90968 25.2168 9.68058 25.2168 9.41374V-0.841919H25.2177Z" fill="#FF4155"/>
<path fill-rule="evenodd" clip-rule="evenodd" d="M19.64 -0.841919H21.9472C20.2204 -0.841919 18.8072 0.571323 18.8072 2.29812V21.8014C18.8072 23.5282 20.2204 24.9414 21.9472 24.9414H19.64C17.9132 24.9414 16.5 23.5282 16.5 21.8014V2.29812C16.5 0.571323 17.9132 -0.841919 19.64 -0.841919Z" fill="#E6BC5A"/>
</g>
<g clip-path="url(#clip2_54_5509)">
<path fill-rule="evenodd" clip-rule="evenodd" d="M10.1543 34.3354L12.6115 34.8628C22.1493 35.8735 27.159 46.7024 42.1414 35.7693L47.9174 34.534L45.4548 21.8256L40.7254 22.8363C31.6872 17.6155 24.4592 20.7681 17.8458 22.7447L15.3167 22.2047L12.9817 21.7052L10.1543 34.3354Z" fill="#FFDAA2"/>
<path fill-rule="evenodd" clip-rule="evenodd" d="M45.456 21.8256L40.7267 22.8364C36.7304 20.4142 31.9148 19.2705 25.7012 20.5112L20.944 24.945C17.3736 28.2458 23.4937 28.6403 27.4864 24.6602C30.4764 30.3724 38.1113 30.5485 42.1426 35.7694L47.9187 34.534L45.456 21.8256Z" fill="#FBBD80"/>
<path fill-rule="evenodd" clip-rule="evenodd" d="M18.7759 37.6254L21.1595 35.5222C21.9061 34.8654 21.9797 33.7136 21.3203 32.9679C20.6608 32.2213 19.5117 32.1476 18.7633 32.8071L16.3798 34.9085C15.6332 35.568 15.5622 36.7171 16.219 37.4655C16.8793 38.2112 18.0302 38.2831 18.7759 37.6254Z" fill="#FBBD80"/>
<path fill-rule="evenodd" clip-rule="evenodd" d="M22.9908 38.7359L25.3743 36.6345C26.1209 35.975 26.1946 34.8259 25.5351 34.0775C24.8757 33.3309 23.7266 33.26 22.9782 33.9167L20.5946 36.02C19.848 36.6767 19.7771 37.8285 20.4338 38.5742C21.0933 39.3217 22.2442 39.3954 22.9908 38.7359Z" fill="#FBBD80"/>
<path fill-rule="evenodd" clip-rule="evenodd" d="M26.4058 40.5517L28.7893 38.4503C29.5359 37.7935 29.6096 36.6417 28.9502 35.896C28.2934 35.1476 27.1416 35.0757 26.3959 35.7352L24.0123 37.8366C23.2639 38.4934 23.1921 39.6452 23.8515 40.3909C24.5083 41.1402 25.6592 41.2121 26.4058 40.5517Z" fill="#FBBD80"/>
<path fill-rule="evenodd" clip-rule="evenodd" d="M29.1975 38.0917L28.538 38.6748C27.7896 39.3343 27.7177 40.4834 28.3754 41.2291C29.0349 41.9775 30.1858 42.0493 30.9324 41.3917L31.5945 40.8059C32.3411 40.1491 32.4148 38.9973 31.7553 38.2516C31.0941 37.5059 29.9459 37.4323 29.1975 38.0917Z" fill="#FBBD80"/>
<path fill-rule="evenodd" clip-rule="evenodd" d="M6.50195 33.5554L9.20702 20.8973L15.3199 22.2036L12.6149 34.8618L6.50195 33.5554Z" fill="#0593FC"/>
<path fill-rule="evenodd" clip-rule="evenodd" d="M43.6855 22.2083L49.7985 20.9019L52.5035 33.5601L46.3906 34.8664L43.6855 22.2083Z" fill="#0593FC"/>
<path fill-rule="evenodd" clip-rule="evenodd" d="M9.2052 20.8983L10.4864 21.1741L7.78117 33.8286L6.5 33.5564L9.2052 20.8983Z" fill="#0584E3"/>
</g>
</g>
<g clip-path="url(#clip3_54_5509)">
<path fill-rule="evenodd" clip-rule="evenodd" d="M19.7475 1.15808H39.2507C40.9775 1.15808 42.3908 2.57132 42.3908 4.29812V23.8014C42.3908 25.5282 40.9775 26.9414 39.2507 26.9414H19.7475C18.0207 26.9414 16.6074 25.5282 16.6074 23.8014V4.29812C16.6074 2.57132 18.0207 1.15808 19.7475 1.15808Z" fill="#FFD164"/>
<path fill-rule="evenodd" clip-rule="evenodd" d="M25.3251 1.15808H33.6734V11.4137C33.6734 11.6815 33.5359 11.9106 33.2988 12.0373C33.0643 12.1648 32.7974 12.1541 32.5728 12.0094L29.8883 10.2548C29.6466 10.0966 29.351 10.0966 29.1093 10.2548L26.4248 12.0094C26.2011 12.155 25.9334 12.1648 25.6989 12.0373C25.4617 11.9097 25.3242 11.6806 25.3242 11.4137V1.15808H25.3251Z" fill="#FF4155"/>
<path fill-rule="evenodd" clip-rule="evenodd" d="M19.7475 1.15808H22.0546C20.3279 1.15808 18.9146 2.57132 18.9146 4.29812V23.8014C18.9146 25.5282 20.3279 26.9414 22.0546 26.9414H19.7475C18.0207 26.9414 16.6074 25.5282 16.6074 23.8014V4.29812C16.6074 2.57132 18.0207 1.15808 19.7475 1.15808Z" fill="#E6BC5A"/>
</g>
<defs>
<clipPath id="clip0_54_5509">
<rect x="6.5" y="4" width="45" height="43" rx="21.5" fill="white"/>
</clipPath>
<clipPath id="clip1_54_5509">
<rect width="25.7834" height="25.7834" fill="white" transform="translate(16.5 -0.841919)"/>
</clipPath>
<clipPath id="clip2_54_5509">
<rect width="46" height="46" fill="white" transform="translate(6.5 -2)"/>
</clipPath>
<clipPath id="clip3_54_5509">
<rect width="26" height="17" fill="white" transform="translate(16.5 1)"/>
</clipPath>
</defs>
</svg>
