<svg width="56" height="48" viewBox="0 0 56 48" fill="none" xmlns="http://www.w3.org/2000/svg">
<path d="M0 8C0 3.58172 3.58172 0 8 0H48C52.4183 0 56 3.58172 56 8V40C56 44.4183 52.4183 48 48 48H8C3.58172 48 0 44.4183 0 40V8Z" fill="white"/>
<g clip-path="url(#clip0_54_4901)">
<path d="M27.0844 39.9999H8.79948C7.0322 39.9999 5.59961 38.5672 5.59961 36.8V33.6H30.1581L27.0844 39.9999Z" fill="#D3DCFB"/>
<path d="M47.2027 14.4V27.8435V36.7998H8.79948C7.0322 36.7998 5.59961 35.3672 5.59961 33.5999V14.4L28.0012 6.3999L47.2027 14.4Z" fill="#EBF5FC"/>
<path d="M11.2508 20.8001H9.55078C9.13659 20.8001 8.80078 20.4643 8.80078 20.0501V18.3501C8.80078 17.9359 9.13659 17.6001 9.55078 17.6001H11.2508C11.6649 17.6001 12.0008 17.9359 12.0008 18.3501V20.0501C12.0008 20.4643 11.6649 20.8001 11.2508 20.8001Z" fill="#3C58A0"/>
<path d="M17.6511 20.8001H15.9512C15.537 20.8001 15.2012 20.4643 15.2012 20.0501V18.3501C15.2012 17.9359 15.537 17.6001 15.9512 17.6001H17.6511C18.0653 17.6001 18.4011 17.9359 18.4011 18.3501V20.0501C18.4011 20.4643 18.0653 20.8001 17.6511 20.8001Z" fill="#3C58A0"/>
<path d="M24.0515 20.8001H22.3516C21.9374 20.8001 21.6016 20.4643 21.6016 20.0501V18.3501C21.6016 17.9359 21.9374 17.6001 22.3516 17.6001H24.0515C24.4657 17.6001 24.8015 17.9359 24.8015 18.3501V20.0501C24.8015 20.4643 24.4658 20.8001 24.0515 20.8001Z" fill="#3C58A0"/>
<path d="M30.45 20.8001H28.75C28.3358 20.8001 28 20.4643 28 20.0501V18.3501C28 17.9359 28.3358 17.6001 28.75 17.6001H30.45C30.8642 17.6001 31.2 17.9359 31.2 18.3501V20.0501C31.2 20.4643 30.8642 20.8001 30.45 20.8001Z" fill="#3C58A0"/>
<path d="M36.8504 20.8001H35.1504C34.7362 20.8001 34.4004 20.4643 34.4004 20.0501V18.3501C34.4004 17.9359 34.7362 17.6001 35.1504 17.6001H36.8504C37.2645 17.6001 37.6004 17.9359 37.6004 18.3501V20.0501C37.6004 20.4643 37.2646 20.8001 36.8504 20.8001Z" fill="#3C58A0"/>
<path d="M43.2488 20.8001H41.5488C41.1346 20.8001 40.7988 20.4643 40.7988 20.0501V18.3501C40.7988 17.9359 41.1346 17.6001 41.5488 17.6001H43.2488C43.663 17.6001 43.9988 17.9359 43.9988 18.3501V20.0501C43.9988 20.4643 43.663 20.8001 43.2488 20.8001Z" fill="#3C58A0"/>
<path d="M11.2508 27.2H9.55078C9.13659 27.2 8.80078 26.8642 8.80078 26.45V24.75C8.80078 24.3358 9.13659 24 9.55078 24H11.2508C11.6649 24 12.0008 24.3358 12.0008 24.75V26.45C12.0008 26.8642 11.6649 27.2 11.2508 27.2Z" fill="#3C58A0"/>
<path d="M17.6511 27.2H15.9512C15.537 27.2 15.2012 26.8642 15.2012 26.45V24.75C15.2012 24.3358 15.537 24 15.9512 24H17.6511C18.0653 24 18.4011 24.3358 18.4011 24.75V26.45C18.4011 26.8642 18.0653 27.2 17.6511 27.2Z" fill="#3C58A0"/>
<path d="M24.0515 27.2H22.3516C21.9374 27.2 21.6016 26.8642 21.6016 26.45V24.75C21.6016 24.3358 21.9374 24 22.3516 24H24.0515C24.4657 24 24.8015 24.3358 24.8015 24.75V26.45C24.8015 26.8642 24.4658 27.2 24.0515 27.2Z" fill="#3C58A0"/>
<path d="M31.2 27.2V24.8C31.2 24.3581 30.8418 24 30.4 24H28.8C28.3581 24 28 24.3581 28 24.8V26.4C28 26.8418 28.3582 27.2 28.8 27.2H31.2Z" fill="#3C58A0"/>
<path d="M11.2508 33.6H9.55078C9.13659 33.6 8.80078 33.2642 8.80078 32.85V31.15C8.80078 30.7358 9.13659 30.4 9.55078 30.4H11.2508C11.6649 30.4 12.0008 30.7358 12.0008 31.15V32.85C12.0008 33.2642 11.6649 33.6 11.2508 33.6Z" fill="#3C58A0"/>
<path d="M17.6511 33.6H15.9512C15.537 33.6 15.2012 33.2642 15.2012 32.85V31.15C15.2012 30.7358 15.537 30.4 15.9512 30.4H17.6511C18.0653 30.4 18.4011 30.7358 18.4011 31.15V32.85C18.4011 33.2642 18.0653 33.6 17.6511 33.6Z" fill="#3C58A0"/>
<path d="M24.0515 33.6H22.3516C21.9374 33.6 21.6016 33.2642 21.6016 32.85V31.15C21.6016 30.7358 21.9374 30.4 22.3516 30.4H24.0515C24.4657 30.4 24.8015 30.7358 24.8015 31.15V32.85C24.8015 33.2642 24.4658 33.6 24.0515 33.6Z" fill="#3C58A0"/>
<path d="M43.2271 17.6H41.5724C41.4723 17.6 41.3769 17.6197 41.2891 17.6543C41.5755 17.7673 41.7783 18.0459 41.7783 18.3726V20.0273C41.7783 20.3539 41.5754 20.6325 41.2891 20.7456C41.3769 20.7803 41.4723 20.7999 41.5724 20.7999H43.2271C43.6538 20.7999 43.9998 20.454 43.9998 20.0274V18.3727C43.9997 17.9459 43.6537 17.6 43.2271 17.6Z" fill="#2A428C"/>
<path d="M36.8267 17.6H35.172C35.0719 17.6 34.9765 17.6197 34.8887 17.6543C35.1751 17.7673 35.378 18.0459 35.378 18.3726V20.0273C35.378 20.3539 35.175 20.6325 34.8887 20.7456C34.9765 20.7803 35.0719 20.7999 35.172 20.7999H36.8267C37.2534 20.7999 37.5993 20.454 37.5993 20.0274V18.3727C37.5993 17.9459 37.2534 17.6 36.8267 17.6Z" fill="#2A428C"/>
<path d="M30.4282 17.6H28.7735C28.6734 17.6 28.5781 17.6197 28.4902 17.6543C28.7766 17.7673 28.9796 18.0459 28.9796 18.3726V20.0273C28.9796 20.3539 28.7766 20.6325 28.4902 20.7456C28.5781 20.7803 28.6734 20.7999 28.7735 20.7999H30.4282C30.855 20.7999 31.2009 20.454 31.2009 20.0274V18.3727C31.2008 17.9459 30.8549 17.6 30.4282 17.6Z" fill="#2A428C"/>
<path d="M24.0278 17.6H22.3732C22.273 17.6 22.1777 17.6197 22.0898 17.6543C22.3762 17.7673 22.5792 18.0459 22.5792 18.3726V20.0273C22.5792 20.3539 22.3762 20.6325 22.0898 20.7456C22.1777 20.7803 22.273 20.7999 22.3732 20.7999H24.0278C24.4546 20.7999 24.8005 20.454 24.8005 20.0274V18.3727C24.8004 17.9459 24.4546 17.6 24.0278 17.6Z" fill="#2A428C"/>
<path d="M17.6275 17.6H15.9728C15.8726 17.6 15.7773 17.6197 15.6895 17.6543C15.9759 17.7673 16.1787 18.0459 16.1787 18.3726V20.0273C16.1787 20.3539 15.9758 20.6325 15.6895 20.7456C15.7773 20.7803 15.8726 20.7999 15.9728 20.7999H17.6275C18.0542 20.7999 18.4001 20.454 18.4001 20.0274V18.3727C18.4001 17.9459 18.0542 17.6 17.6275 17.6Z" fill="#2A428C"/>
<path d="M11.229 17.6H9.57433C9.4742 17.6 9.37886 17.6197 9.29102 17.6543C9.57742 17.7673 9.78039 18.0459 9.78039 18.3726V20.0273C9.78039 20.3539 9.57742 20.6325 9.29102 20.7456C9.37886 20.7803 9.4742 20.7999 9.57433 20.7999H11.229C11.6558 20.7999 12.0017 20.454 12.0017 20.0274V18.3727C12.0016 17.9459 11.6557 17.6 11.229 17.6Z" fill="#2A428C"/>
<path d="M11.229 24H9.57433C9.4742 24 9.37886 24.0197 9.29102 24.0543C9.57742 24.1673 9.78039 24.446 9.78039 24.7726V26.4274C9.78039 26.754 9.57742 27.0326 9.29102 27.1457C9.37886 27.1804 9.4742 27.2001 9.57433 27.2001H11.229C11.6558 27.2001 12.0017 26.8541 12.0017 26.4275V24.7727C12.0016 24.3459 11.6557 24 11.229 24Z" fill="#2A428C"/>
<path d="M11.229 30.4H9.57433C9.4742 30.4 9.37886 30.4197 9.29102 30.4543C9.57742 30.5674 9.78039 30.846 9.78039 31.1726V32.8274C9.78039 33.154 9.57742 33.4327 9.29102 33.5457C9.37886 33.5804 9.4742 33.6001 9.57433 33.6001H11.229C11.6558 33.6001 12.0017 33.2541 12.0017 32.8275V31.1727C12.0016 30.7459 11.6557 30.4 11.229 30.4Z" fill="#2A428C"/>
<path d="M17.6275 24H15.9728C15.8726 24 15.7773 24.0197 15.6895 24.0543C15.9759 24.1673 16.1787 24.446 16.1787 24.7726V26.4274C16.1787 26.754 15.9758 27.0326 15.6895 27.1457C15.7773 27.1804 15.8726 27.2001 15.9728 27.2001H17.6275C18.0542 27.2001 18.4001 26.8541 18.4001 26.4275V24.7727C18.4001 24.3459 18.0542 24 17.6275 24Z" fill="#2A428C"/>
<path d="M17.6275 30.4H15.9728C15.8726 30.4 15.7773 30.4197 15.6895 30.4543C15.9759 30.5674 16.1787 30.846 16.1787 31.1726V32.8274C16.1787 33.154 15.9758 33.4327 15.6895 33.5457C15.7773 33.5804 15.8726 33.6001 15.9728 33.6001H17.6275C18.0542 33.6001 18.4001 33.2541 18.4001 32.8275V31.1727C18.4001 30.7459 18.0542 30.4 17.6275 30.4Z" fill="#2A428C"/>
<path d="M24.0278 24H22.3732C22.273 24 22.1777 24.0197 22.0898 24.0543C22.3762 24.1673 22.5792 24.446 22.5792 24.7726V26.4274C22.5792 26.754 22.3762 27.0326 22.0898 27.1457C22.1777 27.1804 22.273 27.2001 22.3732 27.2001H24.0278C24.4546 27.2001 24.8005 26.8541 24.8005 26.4275V24.7727C24.8004 24.3459 24.4546 24 24.0278 24Z" fill="#2A428C"/>
<path d="M31.2009 27.2V24.7726C31.2009 24.3458 30.855 24 30.4282 24H28.7735C28.6734 24 28.5781 24.0197 28.4902 24.0543C28.7766 24.1673 28.9796 24.446 28.9796 24.7726V26.4274C28.9796 26.754 28.7766 27.0326 28.4902 27.1457C28.5781 27.1804 28.6734 27.2001 28.7735 27.2001H31.2009V27.2Z" fill="#2A428C"/>
<path d="M24.0278 30.4H22.3732C22.273 30.4 22.1777 30.4197 22.0898 30.4543C22.3762 30.5674 22.5792 30.846 22.5792 31.1726V32.8274C22.5792 33.154 22.3762 33.4327 22.0898 33.5457C22.1777 33.5804 22.273 33.6001 22.3732 33.6001H24.0278C24.4546 33.6001 24.8005 33.2541 24.8005 32.8275V31.1727C24.8004 30.7459 24.4546 30.4 24.0278 30.4Z" fill="#2A428C"/>
<path d="M44.9805 13.4739V27.8436V36.8H47.2034V27.8436V14.4L44.9805 13.4739Z" fill="#D3DCFB"/>
<path d="M47.2027 14.4V6.39995C47.2027 4.63267 45.77 3.20007 44.0028 3.20007H8.79948C7.0322 3.20007 5.59961 4.63267 5.59961 6.39995V14.4H47.2027Z" fill="#FF4155"/>
<path d="M15.6822 7.12428H13.5993C13.1992 7.12428 12.875 6.8 12.875 6.39997C12.875 5.99994 13.1993 5.67566 13.5993 5.67566H15.6822C16.0823 5.67566 16.4065 5.99994 16.4065 6.39997C16.4065 6.8 16.0822 7.12428 15.6822 7.12428Z" fill="#E80054"/>
<path d="M20.7993 7.12428H18.7165C18.3164 7.12428 17.9922 6.8 17.9922 6.39997C17.9922 5.99994 18.3165 5.67566 18.7165 5.67566H20.7993C21.1995 5.67566 21.5237 5.99994 21.5237 6.39997C21.5237 6.8 21.1995 7.12428 20.7993 7.12428Z" fill="#E80054"/>
<path d="M34.0826 7.12428H31.9997C31.5996 7.12428 31.2754 6.8 31.2754 6.39997C31.2754 5.99994 31.5997 5.67566 31.9997 5.67566H34.0826C34.4828 5.67566 34.807 5.99994 34.807 6.39997C34.807 6.8 34.4828 7.12428 34.0826 7.12428Z" fill="#E80054"/>
<path d="M39.1998 7.12428H37.1169C36.7168 7.12428 36.3926 6.8 36.3926 6.39997C36.3926 5.99994 36.7169 5.67566 37.1169 5.67566H39.1998C39.6 5.67566 39.9241 5.99994 39.9241 6.39997C39.9241 6.8 39.5999 7.12428 39.1998 7.12428Z" fill="#E80054"/>
<path d="M19.1992 6C19.1992 7.10456 18.3038 7.99997 17.1992 7.99997C16.0946 7.99997 15.1992 7.10456 15.1992 6V1.99997C15.1991 0.895406 16.0945 0 17.1991 0C18.3037 0 19.1991 0.895406 19.1991 1.99997V6H19.1992Z" fill="#EBF5FC"/>
<path d="M37.6016 6C37.6016 7.10456 36.7062 7.99997 35.6016 7.99997C34.4971 7.99997 33.6016 7.10456 33.6016 6V1.99997C33.6016 0.895406 34.497 0 35.6015 0C36.7061 0 37.6015 0.895406 37.6015 1.99997V6H37.6016Z" fill="#EBF5FC"/>
<path d="M35.5999 0C35.1892 0 34.8079 0.124125 34.4902 0.336375C35.027 0.695063 35.3807 1.30603 35.3807 2.00006V6C35.3807 6.69394 35.027 7.305 34.4902 7.66369C34.8078 7.87584 35.1892 8.00006 35.5999 8.00006C36.7044 8.00006 37.5998 7.10466 37.5998 6.00009V1.99997C37.5999 0.895406 36.7045 0 35.5999 0Z" fill="#D3DCFB"/>
<path d="M17.1995 0C16.7888 0 16.4075 0.124125 16.0898 0.336375C16.6266 0.695063 16.9803 1.30603 16.9803 2.00006V6C16.9803 6.69394 16.6266 7.305 16.0898 7.66369C16.4074 7.87584 16.7888 8.00006 17.1995 8.00006C18.304 8.00006 19.1994 7.10466 19.1994 6.00009V1.99997C19.1995 0.895406 18.3041 0 17.1995 0Z" fill="#D3DCFB"/>
<path d="M44.0034 3.19995H41.7812C43.5485 3.19995 44.9811 4.63254 44.9811 6.39983V14.4H47.2032V6.39992C47.2033 4.63264 45.7706 3.19995 44.0034 3.19995Z" fill="#E80054"/>
<path d="M5.59961 10.4756H47.2028V11.9243H5.59961V10.4756Z" fill="#E80054"/>
<path d="M38.4004 48C45.0278 48 50.4004 42.6274 50.4004 36C50.4004 29.3726 45.0278 24 38.4004 24C31.773 24 26.4004 29.3726 26.4004 36C26.4004 42.6274 31.773 48 38.4004 48Z" fill="#4FABF7"/>
<path d="M38.4016 44.8C43.2617 44.8 47.2016 40.8601 47.2016 36C47.2016 31.1399 43.2617 27.2 38.4016 27.2C33.5415 27.2 29.6016 31.1399 29.6016 36C29.6016 40.8601 33.5415 44.8 38.4016 44.8Z" fill="#EBF5FC"/>
<path d="M38.402 35.1243C38.0019 35.1243 37.6777 34.8 37.6777 34.4V30.4C37.6777 29.9999 38.002 29.6757 38.402 29.6757C38.8022 29.6757 39.1264 29.9999 39.1264 30.4V34.4C39.1264 34.8 38.8021 35.1243 38.402 35.1243Z" fill="#3C58A0"/>
<path d="M42.4017 36.7243H40.0017C39.6015 36.7243 39.2773 36.4 39.2773 35.9999C39.2773 35.5999 39.6016 35.2756 40.0017 35.2756H42.4017C42.8019 35.2756 43.1261 35.5999 43.1261 35.9999C43.1261 36.4 42.8018 36.7243 42.4017 36.7243Z" fill="#3C58A0"/>
<path d="M38.4018 24C38.0272 24 37.6569 24.0181 37.2911 24.0517C43.3977 24.6122 48.1804 29.7472 48.1804 36C48.1804 42.2528 43.3976 47.3878 37.291 47.9483C37.6568 47.9819 38.0271 48 38.4017 48C45.029 48 50.4017 42.6274 50.4017 36C50.4017 29.3726 45.0291 24 38.4018 24Z" fill="#1886EA"/>
<path d="M38.4009 27.2C38.025 27.2 37.6546 27.2237 37.291 27.2694C41.6271 27.8151 44.9811 31.5158 44.9811 36C44.9811 40.4841 41.6271 44.1848 37.291 44.7305C37.6546 44.7763 38.025 44.8 38.4009 44.8C43.261 44.8 47.201 40.8601 47.201 36C47.201 31.1399 43.261 27.2 38.4009 27.2Z" fill="#D3DCFB"/>
<path d="M38.4008 37.6001C39.2845 37.6001 40.0008 36.8837 40.0008 36.0001C40.0008 35.1164 39.2845 34.4 38.4008 34.4C37.5171 34.4 36.8008 35.1164 36.8008 36.0001C36.8008 36.8837 37.5171 37.6001 38.4008 37.6001Z" fill="#FFDD40"/>
</g>
<defs>
<clipPath id="clip0_54_4901">
<rect width="48" height="48" fill="white" transform="translate(4)"/>
</clipPath>
</defs>
</svg>
