<svg width="57" height="48" viewBox="0 0 57 48" fill="none" xmlns="http://www.w3.org/2000/svg">
<g clip-path="url(#clip0_54_5043)">
<rect x="6.5" y="2" width="44" height="44" rx="22" fill="#F3FAC8"/>
<g clip-path="url(#clip1_54_5043)">
<path d="M32.4041 31.4771L32.2715 24.9235C34.5886 24.8956 37.6107 24.4071 40.214 24.1907C40.207 23.9674 40.2349 23.744 40.2977 23.5277C40.3466 23.3253 40.4303 23.1299 40.535 22.9554C40.9259 22.3552 41.9797 22.1179 42.3636 22.8228L44.3178 28.4272L43.236 32.6218C43.1941 32.7962 43.1174 32.9568 43.0197 33.1033C43.0197 33.1033 42.6777 33.6687 42.3496 34.1642H33.6255C32.8717 33.4732 32.432 32.5031 32.4041 31.4771Z" fill="#EFCDB1"/>
<path d="M43.0127 36.7465C43.0197 36.9978 42.7614 37.1932 42.4404 37.2002H41.3028L33.3673 37.263C33.0462 37.263 32.781 37.0675 32.781 36.8233L32.7461 34.541C32.7461 34.2968 33.0043 34.0943 33.3254 34.0943L41.3028 34.0315L42.3915 34.0176C42.7196 34.0176 42.9778 34.213 42.9848 34.4573L43.0127 36.7465Z" fill="#D1D0DF"/>
<path d="M43.0127 36.7466C43.0197 36.9979 42.7614 37.1933 42.4404 37.2003H41.3027V34.0386L42.3915 34.0247C42.7195 34.0247 42.9778 34.2201 42.9848 34.4644L43.0127 36.7466Z" fill="#B5B5C6"/>
<path d="M43.9122 57.3049H33.7383C37.1682 57.3049 40.1754 50.0019 41.8324 37.01L43.8304 36.957L43.9122 57.3049Z" fill="#EFB703"/>
<path d="M42.7829 37.2489C41.6524 51.6527 36.786 57.3049 33.2074 57.3049H31.5639L31.4785 37.2489L42.7829 37.2489Z" fill="#FFC700"/>
<path d="M28.976 26.4659L31.2862 31.7143L44.8052 25.7679C45.4682 25.4818 45.7683 24.7071 45.4752 24.051C45.4752 24.051 45.4752 24.051 45.4752 24.044L39.6265 10.7344L34.1756 13.1353C34.064 13.1842 33.9383 13.1353 33.8895 13.0237C33.8755 12.9888 33.8686 12.9469 33.8755 12.905C33.9453 12.3327 34.0151 11.2509 33.6313 10.5669C32.9194 9.2967 31.3141 8.84304 30.0439 9.55494C28.7736 10.2668 28.32 11.8721 29.0319 13.1423C29.3739 13.7495 29.9392 14.1962 30.6092 14.3916C30.693 14.4126 30.7488 14.4963 30.7279 14.5801C30.7139 14.6359 30.679 14.6778 30.6301 14.6987L24.9141 17.2043L27.4196 22.9064C27.4476 22.9902 27.5383 23.032 27.622 23.0041C27.6709 22.9832 27.7128 22.9413 27.7267 22.8925C28.1315 21.4896 29.5902 20.68 30.9931 21.0848C32.3959 21.4896 33.2055 22.9483 32.8007 24.3511C32.6123 25.0212 32.1586 25.5865 31.5514 25.9285C30.8605 26.3123 29.7787 26.2425 29.2064 26.1658C29.0807 26.1588 28.976 26.2495 28.9691 26.3751C28.9551 26.3961 28.9621 26.431 28.976 26.4659Z" fill="#FFC700"/>
<path d="M29.2617 27.115L31.2857 31.7144L44.8047 25.768C45.4677 25.4818 45.7679 24.7071 45.4747 24.0511C45.4747 24.0511 45.4747 24.0511 45.4747 24.0441L45.2444 23.5206C44.6651 23.8207 44.0719 24.1069 43.4647 24.3721C38.9979 26.3403 34.1403 27.2755 29.2617 27.115Z" fill="#EFB703"/>
<path d="M38.873 29.9626C39.0126 29.6555 39.1801 29.3275 39.3756 28.9785C39.9409 27.9945 40.925 27.5897 40.925 27.5897C40.925 27.5897 40.4992 25.0213 40.3666 24.1628C40.2759 23.5626 40.3876 22.9484 40.6877 22.418C41.0995 21.7759 42.1743 21.5107 42.5651 22.2435L44.4426 28.1201L43.2561 32.5729" fill="#EFCDB1"/>
<path d="M23.8044 18.328L23.937 24.8816C21.6198 24.9026 18.5978 25.3981 15.9945 25.6145C15.9945 25.8378 15.9666 26.0611 15.9107 26.2775C15.8619 26.4799 15.7781 26.6683 15.6734 26.8498C15.2826 27.45 14.2287 27.6873 13.8379 26.9824L11.8906 21.378L12.9724 17.1834C13.0143 17.0089 13.0911 16.8414 13.1888 16.6949C13.1888 16.6949 13.5308 16.1365 13.8588 15.641H22.583C23.3367 16.3319 23.7834 17.3021 23.8044 18.328Z" fill="#EFCDB1"/>
<path d="M23.463 15.257L23.4281 12.9678C23.4281 12.7235 23.1629 12.5281 22.8419 12.5351L13.7687 12.6049C13.4477 12.6049 13.1895 12.8073 13.1895 13.0516L13.2243 15.3338C13.2243 15.5851 13.4896 15.7805 13.8106 15.7735L22.8838 15.7037C23.2048 15.7037 23.463 15.5013 23.463 15.257Z" fill="#D1D0DF"/>
<path d="M14.9053 15.7526H13.628C13.3907 15.7526 13.1953 15.5572 13.1953 15.3199V15.3129V13.1493C13.1953 12.8632 13.4326 12.6259 13.7188 12.6259H14.9053V15.7526Z" fill="#B5B5C6"/>
<path d="M12.2598 -4.86914H22.4337C19.0037 -4.86914 15.9966 2.66497 14.3396 12.0492L12.3348 12.0874L12.2598 -4.86914Z" fill="#035D7C"/>
<path d="M13.957 12.0874C15.0875 3.0439 17.9136 -4.86914 22.9732 -4.86914H24.6178L24.6962 11.858L13.957 12.0874Z" fill="#02648E"/>
<path d="M32.7313 22.8087C33.1012 23.9952 32.5917 25.2794 31.5169 25.8936C30.826 26.2774 29.7442 26.2216 29.1719 26.1518C29.0532 26.1379 28.9485 26.2216 28.9346 26.3403C28.9276 26.3752 28.9346 26.417 28.9485 26.4519L31.0144 31.0723C31.2238 31.5399 31.0144 32.0912 30.5468 32.3006L25.7171 34.4642C25.6403 34.5061 25.5426 34.4712 25.5007 34.3944C25.4798 34.3456 25.4798 34.2897 25.5007 34.2479C26.1428 32.9357 25.5984 31.3584 24.2863 30.7163C22.9742 30.0742 21.3969 30.6186 20.7548 31.9307C20.4477 32.5519 20.4058 33.2707 20.6222 33.9268C20.8734 34.6736 21.7249 35.3436 22.1995 35.6786C22.2972 35.7554 22.3181 35.895 22.2414 35.9927C22.2204 36.0206 22.1925 36.0415 22.1646 36.0555L16.7277 38.4843L10.6975 25.0072C10.4044 24.3442 10.6975 23.5695 11.3606 23.2694L24.1118 17.5672C24.5027 17.3858 24.9703 17.5603 25.1448 17.9581C25.1448 17.9581 25.1448 17.9651 25.1518 17.9651C25.738 19.2842 26.8826 21.8316 27.3642 22.9064C27.3921 22.9902 27.4898 23.0321 27.5736 23.0041C27.6224 22.9832 27.6643 22.9413 27.6713 22.8855C28.0621 21.4826 29.5208 20.6591 30.9237 21.0499C31.7821 21.2942 32.4661 21.9572 32.7313 22.8087Z" fill="#D22732"/>
<path d="M31.5166 25.8936C30.8256 26.2774 29.7438 26.2216 29.1715 26.1518C29.0529 26.1379 28.9482 26.2216 28.9342 26.3403C28.9272 26.3752 28.9342 26.417 28.9482 26.4519L31.0141 31.0723C31.2234 31.5399 31.0141 32.0912 30.5464 32.3006L25.7098 34.4712C25.633 34.5061 25.5353 34.4782 25.4934 34.3944C25.4725 34.3456 25.4725 34.2897 25.5004 34.2479C26.1425 32.9357 25.5981 31.3584 24.286 30.7163C22.9739 30.0742 21.3965 30.6186 20.7544 31.9307C20.4473 32.5519 20.4055 33.2707 20.6218 33.9268C20.8731 34.6736 21.7246 35.3506 22.1992 35.6786C22.2969 35.7554 22.3178 35.895 22.241 35.9927C22.2201 36.0206 22.1922 36.0415 22.1643 36.0555L16.7274 38.4843L15.3105 35.3157C19.9099 31.9377 22.9739 25.8936 22.9739 19.005C22.9739 18.6909 22.9669 18.3838 22.9529 18.0767L24.1045 17.5672C24.4954 17.3858 24.963 17.5603 25.1375 17.9581C25.1375 17.9581 25.1375 17.9651 25.1444 17.9651C25.7307 19.2842 26.8753 21.8316 27.3569 22.9064C27.3848 22.9902 27.4825 23.0321 27.5663 23.0041C27.6151 22.9832 27.657 22.9413 27.664 22.8855C28.0548 21.4826 29.5135 20.6591 30.9163 21.0499C31.7818 21.2872 32.4588 21.9503 32.724 22.8087C33.0939 23.9952 32.5914 25.2724 31.5166 25.8936Z" fill="#C11F2F"/>
<path d="M17.3351 19.8425C17.1956 20.1426 17.028 20.4776 16.8256 20.8265C16.2673 21.8106 15.2832 22.2154 15.2832 22.2154C15.2832 22.2154 15.709 24.7838 15.8416 25.6423C15.9323 26.2425 15.8206 26.8567 15.5205 27.3871C15.1087 28.0222 14.0269 28.2944 13.6431 27.5616L11.7656 21.678L12.9521 17.2322" fill="#EFCDB1"/>
</g>
</g>
<defs>
<clipPath id="clip0_54_5043">
<rect x="6.5" y="2" width="44" height="44" rx="22" fill="white"/>
</clipPath>
<clipPath id="clip1_54_5043">
<rect width="36.1739" height="52" fill="white" transform="translate(10 -1.47778)"/>
</clipPath>
</defs>
</svg>
