<svg width="43" height="43" viewBox="0 0 43 43" fill="none" xmlns="http://www.w3.org/2000/svg">
<rect width="43" height="43" rx="21.5" fill="#E0FAEC"/>
<g clip-path="url(#clip0_167_34339)">
<path d="M12.373 17.007V22.1424C13.2629 19.0593 16.0851 16.9359 19.2941 16.9359H28.1688C30.0873 16.9359 31.6426 15.3807 31.6426 13.4621C31.6426 11.5436 30.0873 9.98828 28.1688 9.98828H19.3918C15.5154 9.98828 12.373 13.1307 12.373 17.007Z" fill="#2EA378"/>
<path d="M28.1688 9.98828H24.5272C17.8146 9.98828 12.373 15.4299 12.373 22.1424C13.2629 19.0593 16.0851 16.9359 19.2941 16.9359H28.1688C30.0873 16.9359 31.6426 15.3807 31.6426 13.4621C31.6426 11.5436 30.0873 9.98828 28.1688 9.98828Z" fill="#37C390"/>
<path d="M25.0939 18.5585H20.1133C18.2547 18.5585 16.748 20.0652 16.748 21.9238C16.748 23.7823 18.2547 25.289 20.1133 25.289H25.0939C26.9525 25.289 28.4592 23.7823 28.4592 21.9238C28.4592 20.0652 26.9525 18.5585 25.0939 18.5585Z" fill="#2EA378"/>
<path d="M19.2245 25.5958V30.5792C19.2245 32.475 17.6877 34.0118 15.792 34.0118C13.8962 34.0118 12.3594 32.475 12.3594 30.5792V25.3768C12.3594 21.626 15.4 18.5853 19.1508 18.5853H25.8474C22.1304 18.7969 19.2245 21.8728 19.2245 25.5958Z" fill="#37C390"/>
</g>
<defs>
<clipPath id="clip0_167_34339">
<rect width="24" height="24" fill="white" transform="translate(10 10)"/>
</clipPath>
</defs>
</svg>
