<svg width="57" height="48" viewBox="0 0 57 48" fill="none" xmlns="http://www.w3.org/2000/svg">
<path d="M48.1875 36.8669C50.2701 33.4102 51.4688 29.3609 51.4688 25.0312C51.4688 12.3459 41.1853 2.0625 28.5 2.0625C15.8147 2.0625 5.53125 12.3459 5.53125 25.0312C5.53125 29.3609 6.72994 33.4102 8.8125 36.8669H48.1875Z" fill="#5C45BF"/>
<path d="M28.5008 48C31.8985 48 35.1235 47.2615 38.0251 45.9375L28.5008 43.7516L18.9766 45.9375C21.8781 47.2615 25.1031 48 28.5008 48Z" fill="#DAE2FE"/>
<path d="M48.1875 29.5562L8.8125 36.623V36.8669C11.1972 40.8252 14.7416 44.0054 18.9757 45.9375H38.0243C42.2584 44.0054 45.8027 40.8252 48.1875 36.8669V29.5562Z" fill="#BEC8F7"/>
<path d="M48.1875 13.0753V29.5566C48.1875 36.5325 42.5325 42.1875 35.5566 42.1875H13.2281C11.5022 40.65 10.0106 38.8575 8.8125 36.8672V13.0753L10.4194 12.7388L28.5 8.95312L46.5806 12.7388L48.1875 13.0753Z" fill="#E9EFFF"/>
<path d="M17.3722 36.6231V13.0753V11.283L8.8125 13.0754V36.867C10.0117 38.8573 11.5044 40.6503 13.2303 42.1876H22.9367C19.8636 42.1876 17.3722 39.6963 17.3722 36.6231Z" fill="#DAE2FE"/>
<path d="M40.574 37.2876H32.4757C31.6636 37.2876 30.9151 36.8485 30.5188 36.1396C30.1226 35.4309 30.1406 34.5632 30.566 33.8714L37.0194 23.3761C37.2989 22.9215 37.3146 22.3648 37.0613 21.8867C36.922 21.6238 36.5885 21.1783 35.9192 21.1482C35.8914 21.1469 35.8628 21.1463 35.834 21.1463C34.9637 21.1463 34.2108 21.7639 34.0436 22.6148C33.8049 23.8298 32.6264 24.6213 31.4117 24.3824C30.1968 24.1438 29.4053 22.9654 29.644 21.7505C30.2231 18.8023 32.8264 16.6626 35.834 16.6626C35.9289 16.6626 36.0253 16.6648 36.1203 16.669C38.2058 16.7629 40.0385 17.9288 41.0233 19.7875C42.0279 21.6835 41.959 23.903 40.8389 25.7247L36.486 32.8039H40.5741C41.8121 32.8039 42.8159 33.8076 42.8159 35.0458C42.8159 36.2839 41.8121 37.2876 40.574 37.2876Z" fill="#2D3C6B"/>
<path d="M34.2441 35.0458C34.2441 33.8076 35.2478 32.8039 36.486 32.8039L40.8389 25.7247C41.959 23.903 42.0279 21.6835 41.0233 19.7875C40.0384 17.9287 38.2057 16.7629 36.1203 16.669C36.0253 16.6648 35.929 16.6626 35.8339 16.6626C32.8264 16.6626 30.2231 18.8023 29.644 21.7505C29.4054 22.9654 30.1968 24.1438 31.4117 24.3824C32.6264 24.6213 33.8049 23.8297 34.0436 22.6148C34.2108 21.7639 34.9637 21.1463 35.8339 21.1463C35.8627 21.1463 35.8914 21.1469 35.9192 21.1482C36.5884 21.1783 36.922 21.6238 37.0613 21.8867C37.3145 22.3648 37.2989 22.9215 37.0194 23.3761L30.5659 33.8714C30.1406 34.5631 30.1226 35.4309 30.5188 36.1396C30.9151 36.8485 31.6636 37.2876 32.4756 37.2876H36.4859C35.2479 37.2876 34.2441 36.2839 34.2441 35.0458Z" fill="#213159"/>
<path d="M20.9553 37.2876C17.2214 37.2876 14.1836 34.2498 14.1836 30.5159V23.4343C14.1836 19.7004 17.2214 16.6626 20.9553 16.6626C24.6893 16.6626 27.7271 19.7004 27.7271 23.4343V30.5159C27.7271 34.2498 24.6893 37.2876 20.9553 37.2876ZM20.9553 21.3501C19.8061 21.3501 18.8711 22.2851 18.8711 23.4343V30.5159C18.8711 31.6651 19.8061 32.6001 20.9553 32.6001C22.1046 32.6001 23.0396 31.6651 23.0396 30.5159V23.4343C23.0396 22.2852 22.1045 21.3501 20.9553 21.3501Z" fill="#2D3C6B"/>
<path d="M8.8125 5.625V13.0752H48.1875V5.625C48.1875 3.55397 46.5085 1.875 44.4375 1.875H12.5625C10.4915 1.875 8.8125 3.55397 8.8125 5.625Z" fill="#FF596E"/>
<path d="M12.5625 1.875C10.4915 1.875 8.8125 3.55397 8.8125 5.625V13.0752H17.3722V1.875H12.5625Z" fill="#FF4155"/>
<path d="M44.4205 33.099H42.9932C40.842 33.099 39.0982 34.8429 39.0982 36.9941V38.2924C39.0982 40.4436 37.3543 42.1874 35.2031 42.1874H37.7998C43.5363 42.1875 48.1867 37.5372 48.1867 31.8007V29.2073C48.1867 31.3152 46.5119 33.0309 44.4205 33.099Z" fill="white"/>
<path d="M24.6889 4.6626H22.7891C22.5302 4.6626 22.3203 4.8725 22.3203 5.13135V9.81885C22.3203 10.0777 22.5302 10.2876 22.7891 10.2876C23.0479 10.2876 23.2578 10.0777 23.2578 9.81885V7.8995H24.538C24.7968 7.8995 25.0067 7.6896 25.0067 7.43075C25.0067 7.17191 24.7968 6.962 24.538 6.962H23.2578V5.6001H24.6889C24.9477 5.6001 25.1577 5.39019 25.1577 5.13135C25.1577 4.8725 24.9478 4.6626 24.6889 4.6626Z" fill="white"/>
<path d="M29.0083 5.6001C29.2673 5.6001 29.4771 5.39019 29.4771 5.13135C29.4771 4.8725 29.2673 4.6626 29.0083 4.6626H27.0332C26.7744 4.6626 26.5645 4.8725 26.5645 5.13135V9.81885C26.5645 10.0777 26.7744 10.2876 27.0332 10.2876H29.0083C29.2673 10.2876 29.4771 10.0777 29.4771 9.81885C29.4771 9.56 29.2673 9.3501 29.0083 9.3501H27.502V7.94385H28.8626C29.1216 7.94385 29.3314 7.73394 29.3314 7.4751C29.3314 7.21625 29.1216 7.00635 28.8626 7.00635H27.502V5.6001H29.0083Z" fill="white"/>
<path d="M33.9475 7.13919C34.1431 6.88007 34.2605 6.55888 34.2605 6.20994C34.2605 5.35672 33.5664 4.6626 32.7131 4.6626H31.3516C31.0926 4.6626 30.8828 4.8725 30.8828 5.13135V9.81885C30.8828 9.94354 30.9325 10.0631 31.0209 10.151C31.1087 10.2385 31.2276 10.2876 31.3516 10.2876H31.3536C31.3536 10.2876 32.6057 10.282 32.9509 10.282C33.9051 10.282 34.6814 9.50572 34.6814 8.55154C34.6815 7.9685 34.3907 7.45288 33.9475 7.13919ZM32.7132 5.6001C33.0495 5.6001 33.3231 5.87366 33.3231 6.20994C33.3231 6.54622 33.0495 6.81979 32.7132 6.81979C32.6147 6.81979 32.4302 6.82035 32.2284 6.821H31.8204V5.6001H32.7132ZM32.951 9.34457C32.7446 9.34457 32.2145 9.34653 31.8203 9.34822V7.7601C31.9508 7.75954 32.0938 7.75907 32.229 7.7585H32.9509C33.3882 7.7585 33.7439 8.11419 33.7439 8.55144C33.7439 8.98869 33.3883 9.34457 32.951 9.34457Z" fill="white"/>
<path d="M13.1875 0C12.4109 0 11.7812 0.629625 11.7812 1.40625V6.09375C11.7812 6.87038 12.4109 7.5 13.1875 7.5C13.9641 7.5 14.5938 6.87038 14.5938 6.09375V1.40625C14.5938 0.629625 13.9641 0 13.1875 0Z" fill="#FFC839"/>
<path d="M18.3438 0C17.5671 0 16.9375 0.629625 16.9375 1.40625V6.09375C16.9375 6.87038 17.5671 7.5 18.3438 7.5C19.1204 7.5 19.75 6.87038 19.75 6.09375V1.40625C19.75 0.629625 19.1204 0 18.3438 0Z" fill="#FFC839"/>
<path d="M43.8125 0C43.0359 0 42.4062 0.629625 42.4062 1.40625V6.09375C42.4062 6.87038 43.0359 7.5 43.8125 7.5C44.5891 7.5 45.2188 6.87038 45.2188 6.09375V1.40625C45.2188 0.629625 44.5891 0 43.8125 0Z" fill="#FFDD40"/>
<path d="M38.6562 0C37.8796 0 37.25 0.629625 37.25 1.40625V6.09375C37.25 6.87038 37.8796 7.5 38.6562 7.5C39.4329 7.5 40.0625 6.87038 40.0625 6.09375V1.40625C40.0625 0.629625 39.4329 0 38.6562 0Z" fill="#FFDD40"/>
<path d="M18.6117 34.9438C18.6117 33.6494 19.661 32.6001 20.9554 32.6001C19.8062 32.6001 18.8712 31.6651 18.8712 30.5158V23.4343C18.8712 22.285 19.8062 21.3501 20.9554 21.3501C19.661 21.3501 18.6117 20.3007 18.6117 19.0063C18.6117 17.7524 19.5963 16.7285 20.8346 16.6656C17.1564 16.7306 14.1836 19.7409 14.1836 23.4343V30.5158C14.1836 34.2092 17.1563 37.2196 20.8346 37.2845C19.5963 37.2217 18.6117 36.1977 18.6117 34.9438Z" fill="#213159"/>
<path d="M20.9566 16.7094L20.9565 16.7088V16.7094L20.9512 16.6323L20.9518 16.6157L20.9566 16.7094Z" fill="black"/>
<path d="M20.9555 37.2876C20.9534 37.2876 20.9513 37.2874 20.9492 37.2874C20.9513 37.2875 20.9534 37.2876 20.9555 37.2876Z" fill="white"/>
<path d="M20.9558 37.3344L20.9504 37.3343L20.9492 37.2405L20.9558 37.3344Z" fill="black"/>
</svg>
