<svg width="56" height="48" viewBox="0 0 56 48" fill="none" xmlns="http://www.w3.org/2000/svg">
<g clip-path="url(#clip0_54_5110)">
<rect x="6" y="4" width="45" height="43" rx="21.5" fill="#E2F2F6"/>
<path d="M39.3184 13.5859C39.2731 13.7349 39.2135 13.879 39.1402 14.0164L40.8992 15.7754L40.8621 15.8125H29.3879L29.3508 15.7754L31.1098 14.0164C31.0365 13.879 30.9769 13.7349 30.9316 13.5859H28.4453V10.6172H30.9316C30.9769 10.4683 31.0365 10.3241 31.1098 10.1867L29.3508 8.42773L31.4512 6.32734L33.2102 8.08633C33.3475 8.01311 33.4917 7.95345 33.6406 7.9082V5.42188H36.6094V7.9082C36.7583 7.95345 36.9025 8.01311 37.0398 8.08633L38.7988 6.32734L40.8992 8.42773L39.1402 10.1867C39.2135 10.3241 39.2731 10.4683 39.3184 10.6172H41.8047V13.5859H39.3184Z" fill="#ED1C24"/>
<path d="M35.125 14.3281C36.3547 14.3281 37.3516 13.3313 37.3516 12.1016C37.3516 10.8719 36.3547 9.875 35.125 9.875C33.8953 9.875 32.8984 10.8719 32.8984 12.1016C32.8984 13.3313 33.8953 14.3281 35.125 14.3281Z" fill="#E6E7E8"/>
<path d="M16.5703 15.0703H29.1875V35.1094H16.5703V15.0703Z" fill="#C49A6C"/>
<path d="M29.1875 15.0703H41.8047V35.1094H29.1875V15.0703Z" fill="#A97C50"/>
<path d="M29.1875 33.625V35.8516L41.8047 35.1094V21.0078C41.8047 24.3541 40.4754 27.5633 38.1092 29.9295C35.743 32.2957 32.5338 33.625 29.1875 33.625Z" fill="#8B5E3C"/>
<path d="M23.2495 0.657104V6.16414L21.0229 7.64851L18.7963 6.16414V0.657104C17.8605 1.03579 17.0366 1.64687 16.4026 2.43258C15.7686 3.21828 15.3455 4.15268 15.1731 5.14745C15.0007 6.14221 15.0849 7.1645 15.4176 8.1177C15.7503 9.0709 16.3205 9.92352 17.0745 10.595C17.3844 10.8706 17.6321 11.2091 17.801 11.5879C17.9699 11.9667 18.0562 12.3771 18.0541 12.7919V15.0704H23.9916V12.7919C23.9896 12.3771 24.0759 11.9667 24.2448 11.5879C24.4137 11.2091 24.6614 10.8706 24.9713 10.595C25.7253 9.92352 26.2955 9.0709 26.6282 8.1177C26.9609 7.1645 27.045 6.14221 26.8727 5.14745C26.7003 4.15268 26.2772 3.21828 25.6432 2.43258C25.0092 1.64687 24.1853 1.03579 23.2495 0.657104Z" fill="#FF9811"/>
<path d="M21.0234 15.0703H18.0547H16.5703L13.6016 21.0078H16.5703H26.2188L29.1875 15.0703H23.9922H21.0234Z" fill="#A97C50"/>
<path d="M40.8621 15.0703H29.3879H29.1875L32.1562 21.0078H41.8047H44.7734L41.8047 15.0703H40.8621Z" fill="#8B5E3C"/>
<path d="M44.2391 31.6953C44.0934 31.4423 43.8993 31.2205 43.6679 31.0426C43.4365 30.8646 43.1723 30.734 42.8904 30.6582C42.6085 30.5823 42.3145 30.5628 42.025 30.6007C41.7356 30.6386 41.4564 30.7331 41.2035 30.8789L33.2844 35.4508H33.2807C33.1751 35.0837 32.9766 34.7501 32.7044 34.4822C32.4321 34.2144 32.0953 34.0214 31.7265 33.9219L20.6531 30.9531C19.9226 30.7575 19.1543 30.7511 18.4206 30.9346L13.6016 32.1406V41.0469L15.63 42.0614C16.2483 42.3703 16.93 42.5311 17.6213 42.5312H28.737C29.5185 42.5323 30.2864 42.3276 30.9636 41.9375L43.4323 34.7383C43.9427 34.4416 44.3144 33.9544 44.4657 33.3838C44.617 32.8132 44.5355 32.2058 44.2391 31.6953Z" fill="#FFBCAB"/>
<path d="M33.2802 35.4508C33.2668 35.407 33.2572 35.3618 33.2416 35.3187C33.226 35.3647 33.2089 35.41 33.1904 35.4538C32.9835 35.9485 32.6044 36.3515 32.1233 36.5884C31.6423 36.8253 31.0917 36.8799 30.5734 36.7422L26.6272 35.6854L22.7968 34.6552C22.7033 34.6303 22.6058 34.6245 22.51 34.6382C22.4142 34.652 22.3222 34.6849 22.2395 34.7351C22.1568 34.7853 22.0851 34.8517 22.0287 34.9303C21.9723 35.0089 21.9324 35.0981 21.9114 35.1926C21.8716 35.3729 21.9029 35.5616 21.9987 35.7194C22.0945 35.8773 22.2474 35.9921 22.4257 36.0401L30.4517 38.1925C30.9625 38.3405 31.5086 38.3088 31.9988 38.1027C32.489 37.8965 32.8936 37.5284 33.1451 37.0599C33.3937 36.5604 33.442 35.9848 33.2802 35.4508Z" fill="#FF9478"/>
<path d="M7.5 31V32.2222V40.7778V42H13.5V40.1667V32.8333V31H7.5Z" fill="#006DF0"/>
<path d="M1.72656 31.3984H7.66406V41.7891H1.72656V31.3984Z" fill="#005ECE"/>
<path d="M6.17969 31.3984H7.66406V41.7891H6.17969V31.3984Z" fill="#004FAC"/>
</g>
<g clip-path="url(#clip1_54_5110)">
<path d="M39.3184 13.5859C39.2731 13.7349 39.2135 13.879 39.1402 14.0164L40.8992 15.7754L40.8621 15.8125H29.3879L29.3508 15.7754L31.1098 14.0164C31.0365 13.879 30.9769 13.7349 30.9316 13.5859H28.4453V10.6172H30.9316C30.9769 10.4683 31.0365 10.3241 31.1098 10.1867L29.3508 8.42773L31.4512 6.32734L33.2102 8.08633C33.3475 8.01311 33.4917 7.95345 33.6406 7.9082V5.42188H36.6094V7.9082C36.7583 7.95345 36.9025 8.01311 37.0398 8.08633L38.7988 6.32734L40.8992 8.42773L39.1402 10.1867C39.2135 10.3241 39.2731 10.4683 39.3184 10.6172H41.8047V13.5859H39.3184Z" fill="#ED1C24"/>
<path d="M35.125 14.3281C36.3547 14.3281 37.3516 13.3313 37.3516 12.1016C37.3516 10.8719 36.3547 9.875 35.125 9.875C33.8953 9.875 32.8984 10.8719 32.8984 12.1016C32.8984 13.3313 33.8953 14.3281 35.125 14.3281Z" fill="#E6E7E8"/>
<path d="M16.5703 15.0703H29.1875V35.1094H16.5703V15.0703Z" fill="#C49A6C"/>
<path d="M29.1875 15.0703H41.8047V35.1094H29.1875V15.0703Z" fill="#A97C50"/>
<path d="M29.1875 33.625V35.8516L41.8047 35.1094V21.0078C41.8047 24.3541 40.4754 27.5633 38.1092 29.9295C35.743 32.2957 32.5338 33.625 29.1875 33.625Z" fill="#8B5E3C"/>
<path d="M23.2495 0.657104V6.16414L21.0229 7.64851L18.7963 6.16414V0.657104C17.8605 1.03579 17.0366 1.64687 16.4026 2.43258C15.7686 3.21828 15.3455 4.15268 15.1731 5.14745C15.0007 6.14221 15.0849 7.1645 15.4176 8.1177C15.7503 9.0709 16.3205 9.92352 17.0745 10.595C17.3844 10.8706 17.6321 11.2091 17.801 11.5879C17.9699 11.9667 18.0562 12.3771 18.0541 12.7919V15.0704H23.9916V12.7919C23.9896 12.3771 24.0759 11.9667 24.2448 11.5879C24.4137 11.2091 24.6614 10.8706 24.9713 10.595C25.7253 9.92352 26.2955 9.0709 26.6282 8.1177C26.9609 7.1645 27.045 6.14221 26.8727 5.14745C26.7003 4.15268 26.2772 3.21828 25.6432 2.43258C25.0092 1.64687 24.1853 1.03579 23.2495 0.657104Z" fill="#FF9811"/>
<path d="M21.0234 15.0703H18.0547H16.5703L13.6016 21.0078H16.5703H26.2188L29.1875 15.0703H23.9922H21.0234Z" fill="#A97C50"/>
<path d="M40.8621 15.0703H29.3879H29.1875L32.1562 21.0078H41.8047H44.7734L41.8047 15.0703H40.8621Z" fill="#8B5E3C"/>
</g>
<defs>
<clipPath id="clip0_54_5110">
<rect x="6" y="4" width="45" height="43" rx="21.5" fill="white"/>
</clipPath>
<clipPath id="clip1_54_5110">
<rect width="31" height="24" fill="white" transform="translate(13.5 1)"/>
</clipPath>
</defs>
</svg>
